<?xml version="1.0" encoding="utf-8"?>
<!-- Generator: Adobe Illustrator 23.0.1, SVG Export Plug-In . SVG Version: 6.00 Build 0)  -->
<svg version="1.1" id="Layer_1" xmlns="http://www.w3.org/2000/svg" xmlns:xlink="http://www.w3.org/1999/xlink" x="0px" y="0px"
	 viewBox="0 0 619.6 355.6" style="enable-background:new 0 0 619.6 355.6;" xml:space="preserve">
<style type="text/css">
	.st0{fill:#D32228;}
	.st1{fill:#030303;}
</style>
<g>
	<path class="st0" d="M412.7,24.4c31.3,0,62.6,0.1,94-0.1c6.3-0.1,11.2,1.5,16,5.6c20.5,17.3,41,34.4,61.9,51.2
		c4.8,3.8,6.5,7.9,6.5,13.9c-0.2,52.2-0.2,104.4,0,156.6c0,6.6-2.2,10.9-7.1,15c-21.4,17.5-42.7,35.2-63.9,53.1
		c-4.2,3.5-8.4,4.7-13.6,4.7c-62.6,0-125.3-0.1-187.9,0.4c-9.1,0.1-11.8-2.6-11.4-11.5c0.7-14,1-28.2-0.1-42.2
		c-0.8-10.1,3.8-13.2,12.4-15.2c20.5-4.9,20.4-5.2,20.4-26.2c0-39-0.4-78.1,0.3-117.1c0.2-10.6-2.8-15-13.2-17.3
		c-19.9-4.3-19.7-4.9-19.6-25.4c0.1-11.3,0.7-22.7,0.1-34c-0.5-8.8,2.2-11.8,11.3-11.7c31.3,0.5,62.6,0.2,94,0.2
		C412.7,24.3,412.7,24.3,412.7,24.4z M429.5,174.8c0,22.3,0.1,44.5-0.1,66.8c-0.1,5.9,0.7,9.3,7.9,9c13.6-0.5,27.3,0.2,40.9-0.3
		c11.9-0.4,24-14,24.1-26c0-33.2,0.1-66.3,0-99.5c0-13.4-11.9-25.6-25.5-25.9c-12.7-0.3-25.5,0.3-38.2-0.2c-7.2-0.3-9.4,2.3-9.3,9.3
		C429.8,130.3,429.5,152.5,429.5,174.8z"/>
	<path class="st1" d="M30.5,172.8c0-27.2,0.3-54.5-0.2-81.7c-0.1-8.1,2.4-13.5,8.8-18.4c10.8-8.2,22-16.4,31.2-26.3
		c17.5-18.9,38.1-24.3,63.3-22.4c26.2,2,52.7,0.6,79,0.3c5.8-0.1,10.2,1.5,14.7,5.3c15.1,13,30.6,25.6,46,38.4
		c3.5,2.9,6.8,5.6,6.6,11c-0.4,15.9-0.3,31.7,0.1,47.6c0,2.2-1.7,3.9-3.9,3.9c-23.2-0.2-46.4-0.6-69.5,0.1c-8.8,0.3-9-5.5-10.6-10.9
		c-6-21.1-6-21.1-27.2-21.1c-10.4,0-21-0.7-31.3,0.2c-10.7,1-18.3,6-18.3,18.7c0.2,37.7,0,75.4,0.1,113.1c0,12.4,7.2,19.5,20,19.7
		c13.2,0.2,26.4-0.4,39.5,0.2c8.6,0.4,12.6-1.9,14.7-11c4.7-20.4,5.3-20.3,26.3-20.3c16.4,0,32.7,0.4,49.1-0.2
		c8.2-0.3,12.5,1.8,10.7,11.2c5.9,31.3-6.1,52.3-31.8,71.2c-20.7,15.2-39.5,25.9-65.9,23.3c-22.1-2.1-44.5-1-66.7-0.3
		c-11.1,0.3-19.7-2.4-28.1-10c-15.8-14.3-32.4-27.8-49.1-41.1c-5.6-4.4-7.6-9.2-7.5-16.2c0.3-28.2,0.1-56.3,0.1-84.5
		C30.7,172.8,30.6,172.8,30.5,172.8z"/>
</g>
</svg>
