<?xml version="1.0" encoding="utf-8"?>
<!-- Generator: Adobe Illustrator 23.0.1, SVG Export Plug-In . SVG Version: 6.00 Build 0)  -->
<svg version="1.1" id="Layer_1" xmlns="http://www.w3.org/2000/svg" xmlns:xlink="http://www.w3.org/1999/xlink" x="0px" y="0px"
	 viewBox="0 0 800 800" style="enable-background:new 0 0 800 800;" xml:space="preserve">
<style type="text/css">
	.st0{fill:#1A1A1A;}
</style>
<g>
	<path class="st0" d="M719.6,162.1c0,29.6-15,57.4-49.4,57.4h-49.6c-34,0-48.8-27.7-48.6-57.4v-55.3h147.7V162.1z M606.9,163.3
		c0,12.7,6.5,18.6,16.1,18.6h46.1c9.6,0,15.6-6,15.6-18.6v-19h-77.8V163.3z"/>
	<path class="st0" d="M670.9,235.9c34,0,50.7,30.5,50.7,61.1c0,30.7-16.9,61.3-50.7,61.3h-50.5c-33.8,0-50.7-30.5-50.7-61.1
		s16.9-61.3,50.7-61.3H670.9z M620.5,273.3c-10.8,0-16.1,12.1-16.1,24c0,11.9,5.4,23.8,16.1,23.8h50.5c11.5,0,16.7-12.3,16.7-24.4
		c0-11.7-5.8-23.4-16.7-23.4H620.5z"/>
	<path class="st0" d="M719.6,515.7v38.6l-147.7-42.6v-34.6l40.9-13.1l33.8-5.2v-0.6l-33.6-5.6l-41.1-11.7v-34.6l147.7-42.8v38.8
		l-70.7,17.5l-31.3,3.8v1l31.1,3.5l51.7,16.5v28.4l-51.9,15.2l-30.9,4.8v0.6l30.9,4.2L719.6,515.7z"/>
	<path class="st0" d="M719.6,565.9v35.5l-63,35.7l-29.6,12.5l0.2,1c0-0.2,25.5-4,25.5-4.2h67v37.1H571.9v-37.8l58.2-33.4l29.6-12.9
		l-0.2-1l-28.6,4.8h-59v-37.3H719.6z"/>
</g>
<g>
	<path class="st0" d="M271.6,108.4c115.5,0,223.6,58.5,223.6,192.7v193.5c0,132.5-108.2,190.3-223.6,189.5H56.1V108.4H271.6z
		 M276.5,547.5c49.6,0,72.4-25.2,72.4-62.6V305.1c0-37.4-23.6-61-72.4-61h-74v303.3H276.5z"/>
</g>
</svg>
