<?xml version="1.0" encoding="utf-8"?>
<!-- Generator: Adobe Illustrator 23.0.1, SVG Export Plug-In . SVG Version: 6.00 Build 0)  -->
<svg version="1.1" id="Layer_1" xmlns="http://www.w3.org/2000/svg" xmlns:xlink="http://www.w3.org/1999/xlink" x="0px" y="0px"
	 viewBox="0 0 800 217" style="enable-background:new 0 0 800 217;" xml:space="preserve">
<style type="text/css">
	.st0{fill:#1A1A1A;}
</style>
<g>
	<g>
		<path class="st0" d="M732.8,48.5c0,7.5-3.8,14.5-12.5,14.5h-12.5c-8.6,0-12.3-7-12.3-14.5v-14h37.3V48.5z M704.3,48.9
			c0,3.2,1.6,4.7,4.1,4.7H720c2.4,0,4-1.5,4-4.7v-4.8h-19.6V48.9z"/>
		<path class="st0" d="M720.5,67.2c8.6,0,12.8,7.7,12.8,15.4c0,7.7-4.3,15.5-12.8,15.5h-12.7c-8.5,0-12.8-7.7-12.8-15.4
			c0-7.7,4.3-15.5,12.8-15.5H720.5z M707.8,76.6c-2.7,0-4.1,3.1-4.1,6.1c0,3,1.4,6,4.1,6h12.7c2.9,0,4.2-3.1,4.2-6.2
			c0-2.9-1.5-5.9-4.2-5.9H707.8z"/>
		<path class="st0" d="M732.8,137.8v9.7l-37.3-10.7v-8.7l10.3-3.3l8.5-1.3v-0.2l-8.5-1.4l-10.4-2.9v-8.7l37.3-10.8v9.8l-17.9,4.4
			l-7.9,0.9v0.3l7.8,0.9l13.1,4.2v7.2l-13.1,3.8l-7.8,1.2v0.2l7.8,1.1L732.8,137.8z"/>
		<path class="st0" d="M732.8,150.5v9l-15.9,9l-7.5,3.2l0.1,0.3c0-0.1,6.4-1,6.4-1.1h16.9v9.4h-37.3v-9.5l14.7-8.4l7.5-3.3l-0.1-0.3
			l-7.2,1.2h-14.9v-9.4H732.8z"/>
	</g>
</g>
<g>
	<g>
		<path class="st0" d="M121.5,38.3c28.3,0,54.8,14.3,54.8,47.2V133c0,32.5-26.5,46.6-54.8,46.4H68.7V38.3H121.5z M122.7,145.9
			c12.2,0,17.7-6.2,17.7-15.3v-44c0-9.2-5.8-14.9-17.7-14.9h-18.1v74.3H122.7z"/>
		<path class="st0" d="M192.1,84.7c0-32.5,29.1-48.4,58.4-48.4S309,52.5,309,84.7V133c0,32.3-29.1,48.4-58.4,48.4
			s-58.6-16.1-58.6-48.4V84.7z M227.7,133c0,10.4,11.6,15.3,22.9,15.3s22.7-5.2,22.7-15.3V84.7c0-11-11.8-15.9-23.3-15.9
			c-11.2,0-22.3,5.6-22.3,15.9V133z"/>
		<path class="st0" d="M363.3,132.2c0,22.7,40.3,22.7,40.5,0V38.3h36.1v93.9c-0.2,66.2-112.8,66.2-112.6,0V38.3h36.1V132.2z"/>
		<path class="st0" d="M548.8,104.3c19.3,9.8,21.7,27.9,19.9,38.7c-3.6,22.7-18.9,36.5-50.2,36.5h-57.6V38.3h56.6
			c26.9,0,46.6,16.1,45.8,43C563.1,87.7,559,99.1,548.8,104.3z M517.5,93.5c17.3,0,17.9-25.1,0-25.1h-20.7v25.1H517.5z M517.5,148.1
			c21.5,0,21.1-28.9,0-28.9h-20.7v28.9H517.5z"/>
		<path class="st0" d="M585.3,38.3h35.9v105.8h57.4v35.3h-93.3V38.3z"/>
	</g>
</g>
</svg>
